HIERARCHY
ROOT Hips
{
	OFFSET 0.000000 0.000000 0.000000 
	CHANNELS 6 Xposition Yposition Zposition Zrotation Yrotation Xrotation
	JOINT LeftUpLeg
	{
		OFFSET 1.363060 -1.794630 0.839290 
		CHANNELS 3 Zrotation Yrotation Xrotation
		JOINT LeftLeg
		{
			OFFSET 2.448110 -6.726130 0.000000 
			CHANNELS 3 Zrotation Yrotation Xrotation
			JOINT LeftFoot
			{
				OFFSET 2.562200 -7.039590 0.000000 
				CHANNELS 3 Zrotation Yrotation Xrotation
				JOINT LeftToeBase
				{
					OFFSET 0.157640 -0.433110 2.322550 
					CHANNELS 3 Zrotation Yrotation Xrotation
					End Site
					{
						OFFSET 0.000000 0.000000 0.000000 
					}
				}
			}
		}
	}
	JOINT RightUpLeg
	{
		OFFSET -1.305520 -1.794630 0.839290 
		CHANNELS 3 Zrotation Yrotation Xrotation
		JOINT RightLeg
		{
			OFFSET -2.542530 -6.985550 0.000000 
			CHANNELS 3 Zrotation Yrotation Xrotation
			JOINT RightFoot
			{
				OFFSET -2.568260 -7.056230 0.000000 
				CHANNELS 3 Zrotation Yrotation Xrotation
				JOINT RightToeBase
				{
					OFFSET -0.164730 -0.452590 2.363150 
					CHANNELS 3 Zrotation Yrotation Xrotation
					End Site
					{
						OFFSET 0.000000 0.000000 0.000000 
					}
				}
			}
		}
	}
	JOINT Spine
	{
		OFFSET 0.028270 2.035590 -0.193380 
		CHANNELS 3 Zrotation Yrotation Xrotation
		JOINT Spine1
		{
			OFFSET 0.056720 2.048850 -0.042750 
			CHANNELS 3 Zrotation Yrotation Xrotation
			JOINT Neck1
			{
				OFFSET -0.054170 1.746240 0.172020 
				CHANNELS 3 Zrotation Yrotation Xrotation
				JOINT Head
				{
					OFFSET 0.104070 1.761360 -0.123970 
					CHANNELS 3 Zrotation Yrotation Xrotation
					End Site
					{
						OFFSET 0.000000 0.000000 0.000000 
					}
				}
			}
			JOINT LeftArm
			{
				OFFSET 3.362410 1.200890 -0.311210 
				CHANNELS 3 Zrotation Yrotation Xrotation
				JOINT LeftForeArm
				{
					OFFSET 4.983000 -0.000000 -0.000000 
					CHANNELS 3 Zrotation Yrotation Xrotation
					JOINT LeftHand
					{
						OFFSET 3.483560 -0.000000 -0.000000 
						CHANNELS 3 Zrotation Yrotation Xrotation
						JOINT LeftHandIndex1
						{
							OFFSET 0.715260 -0.000000 -0.000000 
							CHANNELS 3 Zrotation Yrotation Xrotation
							End Site
							{
								OFFSET 0.000000 0.000000 0.000000 
							}
						}
					}
				}
			}
			JOINT RightArm
			{
				OFFSET -3.136600 1.374050 -0.404650 
				CHANNELS 3 Zrotation Yrotation Xrotation
				JOINT RightForeArm
				{
					OFFSET -5.241900 -0.000000 -0.000000 
					CHANNELS 3 Zrotation Yrotation Xrotation
					JOINT RightHand
					{
						OFFSET -3.444170 -0.000000 -0.000000 
						CHANNELS 3 Zrotation Yrotation Xrotation
						JOINT RightHandIndex1
						{
							OFFSET -0.622530 -0.000000 -0.000000 
							CHANNELS 3 Zrotation Yrotation Xrotation
							End Site
							{
								OFFSET 0.000000 0.000000 0.000000 
							}
						}
					}
				}
			}
		}
	}
}
MOTION
Frames: 13
Frame Time: 0.041667
1.901711 16.197994 10.978142 177.417881 -0.791860 -155.359215 -27.459862 -12.382572 -26.524150 7.769895 18.717887 55.563932 0.101161 14.668444 -2.029505 0.952900 -6.216200 -17.413100 34.200916 18.174457 -22.112741 -7.263695 -18.776963 55.783158 -1.321069 -14.405666 -16.169556 -3.780200 11.862100 -35.245800 -0.098748 0.262174 -3.344253 -1.754503 0.027738 5.716220 6.486259 -4.089556 10.083010 -0.769200 -1.202100 20.037800 -84.977396 -20.283860 38.210311 67.601494 -60.203533 -36.405338 1.985396 0.419658 35.577643 -7.125000 0.000000 0.000000 83.987387 16.900317 40.607533 -105.109414 56.976465 -63.747078 1.158966 -1.888975 2.499069 7.125000 0.000000 0.000000 
1.915133 16.491362 10.590086 177.350199 -1.163867 -156.172701 -27.717995 -11.487849 -23.860949 7.013221 17.929507 52.741208 0.383596 11.176452 2.037505 0.820400 -5.779300 -16.145500 35.048591 16.450406 -18.626759 -6.280363 -17.526037 52.108563 -1.245758 -12.721962 -11.308269 -3.656300 11.688400 -34.638400 -0.055486 0.056432 -3.368317 -1.577921 -0.091218 6.301744 6.415051 -4.238241 10.976027 -0.830600 -1.304600 20.532400 -84.692364 -19.888595 38.046155 70.650142 -60.675610 -38.800398 2.070425 0.452284 36.229219 -7.125000 0.000000 0.000000 83.537281 15.931126 41.494931 -106.682399 56.611061 -65.363131 1.109775 -1.853482 3.692166 7.125000 0.000000 0.000000 
1.928026 16.797199 10.200760 177.222583 -1.481952 -157.024457 -27.984350 -10.845998 -21.365400 6.387295 17.194481 50.257892 0.630759 8.200221 6.577294 0.598400 -4.952200 -13.772200 35.636828 14.896120 -15.364046 -5.447060 -16.300912 48.723088 -1.214299 -11.268266 -5.890708 -3.367100 11.266900 -33.185200 -0.022115 -0.148543 -3.402552 -1.395269 -0.211929 6.757432 6.380701 -4.429215 11.924279 -0.856600 -1.439800 21.131200 -84.413582 -19.336411 37.954550 73.713929 -61.024365 -41.225040 2.155761 0.484053 36.789995 -7.125000 0.000000 0.000000 83.099862 14.863739 42.189038 -108.137700 56.272637 -66.872591 1.060014 -1.812266 4.455281 7.125000 0.000000 0.000000 
1.939545 17.111914 9.816402 177.050966 -1.750067 -157.870783 -28.272674 -10.514288 -19.127869 5.921690 16.578235 48.290510 0.892466 5.949239 11.100258 0.412200 -4.121200 -11.417800 36.003325 13.623003 -12.459271 -4.782815 -15.187668 45.815797 -1.295234 -10.377431 -0.006876 -2.989900 10.678700 -31.203800 -0.002096 -0.329171 -3.445739 -1.235797 -0.318580 7.072993 6.373435 -4.663004 12.880655 -0.860900 -1.603900 21.810700 -84.049289 -18.721642 38.463482 76.672243 -61.220512 -43.572953 2.185117 0.531906 36.433057 -7.125000 0.000000 0.000000 82.673702 13.735292 42.629033 -109.810109 55.869001 -68.646678 1.001092 -1.759285 4.707933 7.125000 0.000000 0.000000 
1.949162 17.432442 9.440816 176.871159 -1.988943 -158.635294 -28.568347 -10.497894 -17.279450 5.635468 16.145880 47.019623 1.228375 4.684323 15.471893 0.209600 -2.947500 -8.132600 36.209882 12.714892 -10.078492 -4.288849 -14.271118 43.563701 -1.567811 -10.213644 6.201764 -2.537300 9.905400 -28.670900 0.004088 -0.470112 -3.497083 -1.135161 -0.398898 7.267189 6.378062 -4.923427 13.775544 -0.858100 -1.785100 22.495800 -83.547069 -18.098074 39.809456 79.790215 -61.272608 -46.063354 2.132220 0.612398 34.681486 -7.125000 0.000000 0.000000 82.263680 12.560153 42.773957 -111.821162 55.366035 -70.819870 0.927801 -1.694792 4.577901 7.125000 0.000000 0.000000 
1.957405 17.756034 9.080130 176.732166 -2.217977 -159.248378 -28.809402 -10.753637 -15.981226 5.551833 15.955182 46.591486 1.576456 4.025359 19.039780 0.082400 -1.851900 -5.096500 36.340566 12.198090 -8.368373 -3.954699 -13.619327 42.098161 -2.063052 -10.753016 12.409246 -2.041300 8.951600 -25.644000 -0.000138 -0.563038 -3.556654 -1.085545 -0.449612 7.379409 6.446878 -5.178442 14.314192 -0.846900 -1.974400 23.631100 -82.936846 -17.535099 41.809307 82.903786 -61.188284 -48.580345 1.985984 0.687930 31.805504 -7.125000 0.000000 0.000000 81.881477 11.394044 42.568461 -114.252879 54.733979 -73.483438 0.842313 -1.619426 4.152570 7.125000 0.000000 0.000000 
1.963957 18.078569 8.735825 176.676825 -2.458013 -159.651225 -28.932711 -11.208557 -15.343733 5.686163 16.034508 47.083015 1.861509 3.648724 21.574294 0.021900 -0.955100 -2.625400 36.449502 11.997088 -7.409657 -3.770026 -13.267464 41.473412 -2.737642 -11.738284 18.346556 -1.495600 7.725300 -21.882800 -0.005114 -0.606278 -3.613551 -1.119735 -0.465460 7.438303 6.453093 -5.420041 14.905318 -0.847100 -2.140900 24.151500 -82.261435 -17.050489 44.241508 86.075765 -61.010744 -51.189537 1.760346 0.705399 28.420868 -7.125000 0.000000 0.000000 81.573376 10.243900 42.021624 -116.742556 54.075327 -76.206830 0.746701 -1.544899 3.986788 7.125000 0.000000 0.000000 
1.969452 18.395609 8.410119 176.730179 -2.715708 -159.843400 -28.882064 -11.774250 -15.410849 6.044003 16.374388 48.482683 2.047183 3.343563 23.159103 0.001200 -0.224400 -0.616400 36.561993 12.023180 -7.184147 -3.732264 -13.219698 41.647231 -3.440381 -12.768536 23.380414 -0.994700 6.347400 -17.795700 -0.004902 -0.606878 -3.666354 -1.211072 -0.452897 7.488878 6.434857 -5.612023 15.335777 -0.872900 -2.270000 24.483600 -81.612630 -16.637459 46.659883 89.016033 -60.789482 -53.666956 1.498814 0.641959 25.193715 -7.125000 0.000000 0.000000 81.337626 9.111188 41.250544 -119.096810 53.434265 -78.762594 0.655780 -1.475124 4.111275 7.125000 0.000000 0.000000 
1.974736 18.702293 8.104492 176.886629 -3.001687 -159.883190 -28.641612 -12.398038 -16.103269 6.613912 16.924874 50.678244 2.136414 3.076744 23.985767 0.002600 0.326200 0.896400 36.684425 12.169520 -7.558547 -3.844816 -13.442098 42.502551 -4.017389 -13.403712 27.142055 -0.597400 4.947900 -13.760000 0.006126 -0.585269 -3.705526 -1.324584 -0.426272 7.567820 6.411965 -5.730153 15.609561 -0.893300 -2.354800 24.630300 -81.058564 -16.291252 48.709693 91.430672 -60.585653 -55.745828 1.275279 0.507410 22.921199 -7.125000 0.000000 0.000000 81.176811 8.020436 40.435461 -120.881374 52.937367 -80.674533 0.582719 -1.420773 4.747576 7.125000 0.000000 0.000000 
1.981711 18.994920 7.818734 177.115168 -3.308916 -159.886599 -28.248864 -12.982390 -17.238301 7.371940 17.606940 53.485562 2.155076 2.794392 24.337541 0.012300 0.717500 1.971700 36.816733 12.347493 -8.306125 -4.097411 -13.866158 43.878475 -4.370988 -13.483029 29.423870 -0.342100 3.758500 -10.398100 0.029186 -0.556696 -3.727422 -1.427977 -0.395328 7.643562 6.388395 -5.801405 15.777376 -0.913000 -2.408100 24.629900 -80.634607 -15.954745 50.215337 93.066007 -60.445757 -57.166855 1.134468 0.349875 21.952172 -7.125000 0.000000 0.000000 81.097656 6.952478 39.709878 -121.960489 52.639462 -81.810017 0.533791 -1.382438 5.840826 7.125000 0.000000 0.000000 
1.991328 19.273810 7.548299 177.381122 -3.607684 -159.957269 -27.773459 -13.451815 -18.610012 8.270888 18.332656 56.672695 2.164872 2.596757 24.614015 0.031400 1.144200 3.145600 36.953195 12.515603 -9.202454 -4.456511 -14.404870 45.588162 -4.495000 -13.158204 30.352181 -0.210200 2.951500 -8.143700 0.063162 -0.533200 -3.725323 -1.483180 -0.370088 7.726206 6.377056 -5.818003 15.865728 -0.909000 -2.437000 24.545400 -80.358796 -15.608319 50.968515 93.847217 -60.390490 -57.828316 1.112984 0.227562 22.532897 -7.125000 0.000000 0.000000 81.087133 5.909028 39.135856 -122.582937 52.477155 -82.448228 0.506026 -1.354028 6.944413 7.125000 0.000000 0.000000 
2.004221 19.540546 7.288960 177.656478 -3.863632 -160.188280 -27.292382 -13.734997 -20.009894 9.253920 19.026356 60.005113 2.166784 2.512994 24.810793 0.039000 1.274300 3.503800 37.092209 12.630146 -10.062145 -4.879779 -14.973559 47.449504 -4.462924 -12.691421 30.390309 -0.156800 2.551100 -7.031400 0.103546 -0.517307 -3.691334 -1.480922 -0.353879 7.814111 6.376953 -5.795103 15.908324 -0.883100 -2.451600 24.427400 -80.169160 -15.234589 51.257665 93.802927 -60.423676 -57.749955 1.132719 0.148354 23.683761 -7.125000 0.000000 0.000000 81.154717 4.927874 38.715805 -122.804678 52.440221 -82.654951 0.501374 -1.333072 7.815988 7.125000 0.000000 0.000000 
2.019756 19.797877 7.033743 177.912272 -4.041147 -160.645121 -26.893639 -13.760765 -21.254550 10.253142 19.631178 63.271544 2.215061 2.732842 25.201245 0.055000 1.512900 4.161300 37.214161 12.636638 -10.746857 -5.315872 -15.498229 49.292422 -4.387693 -12.407247 30.124585 -0.146700 2.468500 -6.802400 0.143815 -0.506262 -3.625444 -1.437714 -0.344842 7.886548 6.382902 -5.766161 15.953643 -0.854800 -2.463300 24.315200 -79.977805 -14.783882 51.375734 93.337258 -60.495690 -57.311609 1.132177 0.127568 24.407598 -7.125000 0.000000 0.000000 81.303911 3.982721 38.453299 -122.642189 52.524768 -82.450468 0.517606 -1.321615 8.376684 7.125000 0.000000 0.000000 
